:version 1.10
:name ASF
:units
  mass 1
  length 1
  angle deg
:documentation
  ASF file generated by Kaydara
:root
  axis xyz
  order  tx ty tz rx ry rz
  position 0 0 0
  orientation 0 0 0
:bonedata
  begin
    id 1
    name RightUpLegDummy
    direction -0.718183 -0.695806 0.00816078
    length 4.904
    axis 0 0 0 xyz
  end
  begin
    id 2
    name RightUpLeg
    direction 3.53373e-006 -0.995788 0.0916898
    length 17.4976
    axis -3.49089 -0.000906625 0.000286804 xyz
    dof rx ry rz
  end
  begin
    id 3
    name RightLeg
    direction 0.00371092 -0.995096 -0.0988419
    length 16.5821
    axis 3.68512 0.0193738 -0.131023 xyz
    dof rx ry rz
  end
  begin
    id 4
    name RightFoot
    direction 0.00079151 -0.46099 0.887405
    length 3.77069
    axis 4.81691e-005 -0.120479 -0.188788 xyz
    dof rx ry rz
  end
  begin
    id 5
    name RightToes
    direction 0 0 0
    length 0
    axis 0 0 0 xyz
    dof rx ry rz
  end
  begin
    id 6
    name SpineDummy
    direction 8.3039e-015 1 4.57515e-016
    length 4.6813
    axis 0 0 0 xyz
  end
  begin
    id 7
    name Spine
    direction -3.15643e-008 0.999988 0.00495137
    length 10.1015
    axis -0.001389 0.000121418 2.40972e-006 xyz
    dof rx ry rz
  end
  begin
    id 8
    name Spine1
    direction 0 0 0
    length 0
    axis -0.001389 0.000121451 1.30017e-006 xyz
    dof rx ry rz
  end
  begin
    id 9
    name HEadDummy
    direction -1.99912e-008 0.999999 0.00127422
    length 3.43865
    axis -0.001389 0.000121451 1.30017e-006 xyz
  end
  begin
    id 10
    name HEad
    direction 0 0 0
    length 0
    axis 0 0 0 xyz
    dof rx ry rz
  end
  begin
    id 11
    name LeftShoulder1Dummy
    direction 0.998891 -0.0402509 -0.0244456
    length 3.5433
    axis -0.001389 0.000121451 1.30017e-006 xyz
  end
  begin
    id 12
    name LeftShoulder1
    direction 0.99951 -0.000327763 0.0313091
    length 4.05031
    axis -0.001389 0.000121451 1.30017e-006 xyz
    dof rx ry rz
  end
  begin
    id 13
    name LeftArm
    direction 0.998561 -0.00100056 -0.0536182
    length 10.3537
    axis -23.1894 0.134784 0.967509 xyz
    dof rx ry rz
  end
  begin
    id 14
    name LeftForeArm
    direction 0.998903 0.00866432 0.046012
    length 8.70632
    axis -9.91835 -0.06569 -0.177794 xyz
    dof rx ry rz
  end
  begin
    id 15
    name LeftHand
    direction 0 0 0
    length 0
    axis 0 0 0 xyz
    dof rx ry rz
  end
  begin
    id 16
    name RightShoulderDummy
    direction -0.998891 -0.0402509 -0.0244414
    length 3.5433
    axis -0.001389 0.000121451 1.30017e-006 xyz
  end
  begin
    id 17
    name RightShoulder
    direction -0.99951 -0.000327807 0.0313133
    length 4.05031
    axis 0.215806 0.000203643 -0.0068026 xyz
    dof rx ry rz
  end
  begin
    id 18
    name RightArm
    direction -0.998573 -0.000999564 -0.053403
    length 10.3947
    axis -23.2009 -0.134239 -0.964101 xyz
    dof rx ry rz
  end
  begin
    id 19
    name RightForeArm
    direction -0.998898 0.00868028 0.0461306
    length 8.68355
    axis -9.92322 0.0658061 0.178868 xyz
    dof rx ry rz
  end
  begin
    id 20
    name RightHand
    direction 0 0 0
    length 0
    axis 0 0 0 xyz
    dof rx ry rz
  end
  begin
    id 21
    name LeftUpLegDummy
    direction 0.718183 -0.695806 0.00816078
    length 4.904
    axis 0 0 0 xyz
  end
  begin
    id 22
    name LeftUpLeg
    direction -6.81752e-006 -0.995793 0.0916337
    length 17.4976
    axis -3.48766 0.00143442 -0.000524262 xyz
    dof rx ry rz
  end
  begin
    id 23
    name LeftLeg
    direction -0.00601358 -0.995091 -0.0987824
    length 16.5821
    axis 3.68178 -0.00654042 -0.000285133 xyz
    dof rx ry rz
  end
  begin
    id 24
    name LeftFoot
    direction -0.00417578 -0.460984 0.887399
    length 3.77069
    axis 1.87233e-006 4.66016e-005 -8.6538e-006 xyz
    dof rx ry rz
  end
  begin
    id 25
    name LeftToes
    direction 0 0 0
    length 0
    axis 0 0 0 xyz
    dof rx ry rz
  end
:hierarchy
  begin
    root RightUpLegDummy SpineDummy LeftUpLegDummy
    RightUpLegDummy RightUpLeg
    RightUpLeg RightLeg
    RightLeg RightFoot
    RightFoot RightToes
    SpineDummy Spine
    Spine Spine1
    Spine1 HEadDummy LeftShoulder1Dummy RightShoulderDummy
    HEadDummy HEad
    LeftShoulder1Dummy LeftShoulder1
    LeftShoulder1 LeftArm
    LeftArm LeftForeArm
    LeftForeArm LeftHand
    RightShoulderDummy RightShoulder
    RightShoulder RightArm
    RightArm RightForeArm
    RightForeArm RightHand
    LeftUpLegDummy LeftUpLeg
    LeftUpLeg LeftLeg
    LeftLeg LeftFoot
    LeftFoot LeftToes
  end

:SAMPLES-PER-SECOND 30
:FULLY-SPECIFIED
:DEGREES
304
root  10.1166 39.282 12.1545 61.4429 87.1115 69.2314
RightUpLeg  -8.77041 -16.8636 -11.5156
RightLeg  26.811 -3.95317 -2.40046
RightFoot  -5.51609 -0.166626 2.53816
RightToes  0.000481921 0.542163 -0.142578
Spine  20.2262 -1.49546 4.8863
Spine1  18.3132 -0.89765 0.86795
HEad  -3.04469 -1.07791 -2.08515
LeftShoulder1  5.88511 -17.4562 -21.6787
LeftArm  -4.69617 -32.8916 -68.5279
LeftForeArm  -174.148 -54.1785 -167.316
LeftHand  -0.25398 0.0180481 5.50724
RightShoulder  4.64867 13.6741 20.6861
RightArm  0.979565 36.7737 72.767
RightForeArm  174.117 57.9762 164.422
RightHand  -0.849802 4.52074 -10.2819
LeftUpLeg  -5.93839 18.5653 5.9092
LeftLeg  23.5459 4.55583 2.50197
LeftFoot  -5.64278 0.281362 -4.97158
LeftToes  1.06245e-005 4.65869e-005 -8.65517e-006
305
root  10.1788 39.2351 11.9588 40.0708 86.0515 48.373
RightUpLeg  -8.71206 -15.9259 -11.9847
RightLeg  27.088 -3.28032 -2.05682
RightFoot  -5.53503 -0.170879 2.62512
RightToes  0.000481921 0.542163 -0.142578
Spine  19.9511 -1.46135 5.01909
Spine1  19.8379 -0.743972 0.521704
HEad  -3.24212 0.59193 -3.68645
LeftShoulder1  6.00902 -17.4113 -22.3714
LeftArm  -3.34977 -30.7631 -69.8898
LeftForeArm  -174.182 -54.7777 -167.035
LeftHand  -0.25398 0.0180481 5.50724
RightShoulder  4.63871 13.5443 20.8451
RightArm  1.58404 36.4071 73.7635
RightForeArm  175.799 58.6875 164.149
RightHand  -0.797275 4.4496 -9.73637
LeftUpLeg  -5.13823 19.6765 5.86412
LeftLeg  24.0696 4.94907 2.74766
LeftFoot  -6.19491 0.237755 -4.46942
LeftToes  1.06245e-005 4.65869e-005 -8.65517e-006
306
root  10.2953 39.3813 11.7424 30.0954 84.6309 38.1408
RightUpLeg  -8.49678 -15.0994 -12.3742
RightLeg  25.4895 -2.60902 -1.58484
RightFoot  -4.68801 -0.19752 2.84654
RightToes  0.000481921 0.542163 -0.142578
Spine  19.1245 -1.5246 4.95978
Spine1  20.607 -0.73872 0.0453633
HEad  -2.90086 2.11064 -4.92163
LeftShoulder1  6.03958 -17.2457 -22.7708
LeftArm  -2.92334 -29.0113 -69.9556
LeftForeArm  -174.352 -55.2762 -166.785
LeftHand  -0.25398 0.0180481 5.50724
RightShoulder  4.65587 13.4192 21.1689
RightArm  1.55711 35.2899 74.2526
RightForeArm  177.665 59.1165 164.053
RightHand  -0.736888 4.56928 -8.93107
LeftUpLeg  -4.0627 21.1047 5.45241
LeftLeg  22.4591 5.29198 2.74649
LeftFoot  -5.8866 0.239806 -4.2908
LeftToes  1.06245e-005 4.65869e-005 -8.65517e-006
307
root  10.4316 39.6405 11.5204 27.0571 83.5246 34.123
RightUpLeg  -8.26716 -14.4909 -12.5804
RightLeg  22.5658 -2.21269 -1.23484
RightFoot  -3.25482 -0.242327 3.11219
RightToes  0.000481921 0.542163 -0.142578
Spine  18.2536 -1.7133 4.61385
Spine1  19.9603 -1.11672 0.0867562
HEad  -2.10678 3.38474 -5.75306
LeftShoulder1  6.0158 -17.0869 -22.8877
LeftArm  -3.5445 -28.2024 -68.5592
LeftForeArm  -173.922 -55.1808 -166.863
LeftHand  -0.25398 0.0180481 5.50724
RightShoulder  4.66126 13.3345 21.3513
RightArm  0.832758 33.6848 73.811
RightForeArm  178.763 58.8433 164.31
RightHand  -0.669017 4.67725 -8.06108
LeftUpLeg  -3.24357 22.047 4.67166
LeftLeg  19.4843 5.82088 2.55373
LeftFoot  -4.9533 0.270974 -4.32247
LeftToes  1.06245e-005 4.65869e-005 -8.65517e-006
308
root  10.5559 39.901 11.2932 25.9504 82.7445 31.6953
RightUpLeg  -8.11349 -14.0998 -12.6697
RightLeg  19.2186 -2.00476 -0.950899
RightFoot  -1.71345 -0.308398 3.51782
RightToes  0.000481921 0.542163 -0.142578
Spine  17.5731 -1.86414 4.07065
Spine1  18.3461 -1.73692 0.915212
HEad  -1.28467 4.48072 -6.37709
LeftShoulder1  5.95038 -16.9562 -22.7485
LeftArm  -5.01682 -28.8839 -66.4206
LeftForeArm  -173.244 -54.7396 -167.124
LeftHand  -0.25398 0.0180481 5.50724
RightShoulder  4.57098 13.1996 21.0135
RightArm  -0.0905906 32.7134 73.0838
RightForeArm  178.873 58.1347 164.735
RightHand  -0.594477 4.28482 -7.47007
LeftUpLeg  -2.72638 21.2711 3.96543
LeftLeg  16.2793 7.74915 1.89252
LeftFoot  -3.92206 0.304113 -4.32702
LeftToes  1.06245e-005 4.65869e-005 -8.65517e-006
309
root  10.6472 40.0774 11.052 24.2427 81.9232 28.7571
RightUpLeg  -8.18802 -13.7615 -12.8098
RightLeg  16.4363 -1.78769 -0.540008
RightFoot  -0.475044 -0.401065 4.17935
RightToes  0.000481921 0.542163 -0.142578
Spine  17.2089 -1.89586 3.62601
Spine1  16.5633 -2.24759 2.02683
HEad  -0.916753 5.39675 -6.85526
LeftShoulder1  5.7792 -16.7305 -22.1981
LeftArm  -7.11652 -31.0037 -64.3453
LeftForeArm  -173.369 -54.5829 -167.188
LeftHand  -0.25398 0.0180481 5.50724
RightShoulder  4.37826 12.9772 20.159
RightArm  -1.05435 33.1373 72.8338
RightForeArm  178.439 57.7407 164.922
RightHand  -0.538785 3.47602 -7.35818
LeftUpLeg  -2.42975 18.1478 3.73035
LeftLeg  13.9291 12.0132 0.645468
LeftFoot  -3.37241 0.323648 -4.35554
LeftToes  1.06245e-005 4.65869e-005 -8.65517e-006
